/* XPM */
static char *c812cd4619144043cdc3cf0aa14612d6XzhW05feqBKeD9Re[] = {
/* columns rows colors chars-per-pixel */
"104 64 244 2 ",
"   c None",
".  c #1A1512",
"X  c #140E0B",
"o  c #251D1B",
"O  c #261A0F",
"+  c #29221C",
"@  c #372918",
"#  c #38260E",
"$  c #241E21",
"%  c #2B2423",
"&  c #272323",
"*  c #372D26",
"=  c #3B322B",
"-  c #35302B",
";  c #3A3635",
":  c #2D3338",
">  c #4A3517",
",  c #473929",
"<  c #433B34",
"1  c #453C38",
"2  c #503E26",
"3  c #5D4516",
"4  c #6A4E17",
"5  c #56462C",
"6  c #4C433C",
"7  c #4B4237",
"8  c #52463B",
"9  c #584937",
"0  c #5D513D",
"q  c #4E412A",
"w  c #69542B",
"e  c #775A27",
"r  c #63533B",
"t  c #685638",
"y  c #665131",
"u  c #7B6539",
"i  c #7E601F",
"p  c #383C44",
"a  c #3A4350",
"s  c #4B4543",
"d  c #4A4748",
"f  c #544B44",
"g  c #534C4A",
"h  c #554A44",
"j  c #5B534D",
"k  c #595148",
"l  c #474B54",
"z  c #5C5551",
"x  c #595759",
"c  c #4E5058",
"v  c #645543",
"b  c #61564C",
"n  c #655B4B",
"m  c #6B5D4C",
"M  c #685A44",
"N  c #635B53",
"B  c #655D5A",
"V  c #695D54",
"C  c #715D4A",
"Z  c #77664A",
"A  c #6D6254",
"S  c #6C645B",
"D  c #7B6C5B",
"F  c #756756",
"G  c #7A6D55",
"H  c #555963",
"J  c #6B6563",
"K  c #686466",
"L  c #746C64",
"P  c #746D6A",
"I  c #796B61",
"U  c #7D746B",
"Y  c #7D7367",
"T  c #787576",
"R  c #6B6C72",
"E  c #896517",
"W  c #926B15",
"Q  c #997115",
"!  c #966E0D",
"~  c #A77D17",
"^  c #A87A08",
"/  c #866829",
"(  c #856C3A",
")  c #917421",
"_  c #A17B24",
"`  c #927A46",
"'  c #887859",
"]  c #866F4C",
"[  c #A47F45",
"{  c #837564",
"}  c #8B7C63",
"|  c #82756A",
" . c #867A69",
".. c #857C74",
"X. c #867D7A",
"o. c #917E66",
"O. c #B58816",
"+. c #B08514",
"@. c #AA893A",
"#. c #B78E30",
"$. c #C7970C",
"%. c #C69917",
"&. c #CC990C",
"*. c #D7A718",
"=. c #DDAC11",
"-. c #E8B80C",
";. c #E9B918",
":. c #E1AE16",
">. c #C39928",
",. c #CA9D3D",
"<. c #C59938",
"1. c #D4A739",
"2. c #D2A72F",
"3. c #E7BB23",
"4. c #E0AE3A",
"5. c #F5C90A",
"6. c #F5CA17",
"7. c #FBD212",
"8. c #F6CC28",
"9. c #F5CD32",
"0. c #98855A",
"q. c #AA8649",
"w. c #B78D44",
"e. c #BA9548",
"r. c #A88B5A",
"t. c #B79857",
"y. c #B09153",
"u. c #8D826B",
"i. c #97866A",
"p. c #8D8375",
"a. c #8B837C",
"s. c #89837D",
"d. c #978A76",
"f. c #A58D69",
"g. c #AD9367",
"h. c #B79B66",
"j. c #A9967A",
"k. c #B39C76",
"l. c #A08D72",
"z. c #BDA569",
"x. c #BAA57B",
"c. c #C59B45",
"v. c #C59E52",
"b. c #CDA142",
"n. c #CBA84C",
"m. c #D5AA4A",
"M. c #D5A948",
"N. c #DCB248",
"B. c #C9A758",
"V. c #D4AD53",
"C. c #DCB455",
"Z. c #DDBA5D",
"A. c #D9B55B",
"S. c #E4B848",
"D. c #E6BA54",
"F. c #CBAC62",
"G. c #C5A869",
"H. c #D3B56C",
"J. c #D9B966",
"K. c #CEB475",
"L. c #D8BB76",
"P. c #CAAC6A",
"I. c #E3BE64",
"U. c #E1BD6B",
"Y. c #E0BE71",
"T. c #EBC546",
"R. c #EAC25C",
"E. c #FAD654",
"W. c #F4CE4C",
"Q. c #DDC179",
"!. c #DCC16E",
"~. c #E8C469",
"^. c #F5D869",
"/. c #E3C473",
"(. c #ECCC7C",
"). c #E9C977",
"_. c #F2CE76",
"`. c #EED17C",
"'. c #F5D678",
"]. c #F3C962",
"[. c #F9E37B",
"{. c #7F838B",
"}. c #898687",
"|. c #948D88",
" X c #9B9389",
".X c #9A9797",
"XX c #8D8D93",
"oX c #AC9C84",
"OX c #A69988",
"+X c #A59C94",
"@X c #A49E9A",
"#X c #B69F83",
"$X c #B4A58B",
"%X c #ADA293",
"&X c #AAA29C",
"*X c #B5A998",
"=X c #B6A995",
"-X c #AAA7A5",
";X c #B3ABA2",
":X c #B4ADA7",
">X c #BCB4A9",
",X c #B9B6B5",
"<X c #B1AFB0",
"1X c #A29EA0",
"2X c #C9B58A",
"3X c #D3BC87",
"4X c #C6B698",
"5X c #C9B38B",
"6X c #C6B8A5",
"7X c #C5BBB4",
"8X c #DDC588",
"9X c #DAC694",
"0X c #E7CA85",
"qX c #EDD489",
"wX c #F4D786",
"eX c #E3CD99",
"rX c #EED592",
"tX c #EBD49C",
"yX c #E9D69B",
"uX c #F4DA94",
"iX c #F3D999",
"pX c #F8E397",
"aX c #FCE38B",
"sX c #D8C8A7",
"dX c #CCC5B8",
"fX c #D3C8B1",
"gX c #ECD8A7",
"hX c #F3DCA5",
"jX c #E9DAB7",
"kX c #EAD7B0",
"lX c #FAE7A7",
"zX c #F4E2B5",
"xX c #F8E7B7",
"cX c #F5E8B5",
"vX c #CCC9C9",
"bX c #D3CCC6",
"nX c #D9D6D4",
"mX c #EADCC4",
"MX c #E2DCD5",
"NX c #EBE1CB",
"BX c #F5E8CA",
"VX c #FEF4D3",
"CX c #F3E9D1",
"ZX c #E6E5E3",
/* pixels */
"                                                                                                                                                                                                                ",
"                                                      CXBXBXBXBX                                                                                                                                                ",
"                                              BX    tXgXtXgXgXgXgX      BX                                                                                                                                      ",
"                                            jXgX8XL.U.I.J.I.~./.0XrXrX0XkXBX                                                                    gXzXzX                                                          ",
"                                          jX3Xv.c.M.C.D.C.D.Z.I.(.wX).V.0XkX                                                    gXtXtXrX0X0X0X0X(.L.Y.0X0XeXtXjX                                                ",
"                                          5Xh.w.c.c.M.m.m.m.C.I.`.`.A.m.0XxX                                              CXBXzX0XJ.).wX(.~.I.Z.Z.C.Z.C.V.m.m.F.kX                                              ",
"                                          k.y.w.c.,.,.b.b.M.C.I._.~.c.V.(.zXCX                                            NXzXhX0XV.Z.`.`.).Z.C.m.m.N.m.b.,.<.#.3X                                              ",
"                                        MX#Xq.w.c.b.m.N.m.N.I.~.(.J.@.F.(.hXBX                                            zXgXrXuXB.B.~._.).I.V.b.b.M.,.,.,.<.@.G.                                              ",
"                                        MX#Xq.c.b.N.R.D.D.R._.(.wX/.w.F.(.tXjX                                            kXgXrXiXB.e.A._.~.~.C.M.M.m.,.,.c.c.w.g.                                              ",
"                                        MXj.r.B.N.D.R.D.N.~.wX(.(.).B.B.L.yXjX                                          NXkXeXiXhXt.e.J._.(._.~.D.D.R.D.N.b.e.q.g.                                              ",
"                                          j.g.e.C.M.1.,.,.A.)./.0XuXuX8XP.3XmX                                          mXsXtXhXeXt.B././.(.wX~.D.D.].D.S.N.c.[ k.                                              ",
"                                            g.y.v.c.,.1.m.~./.).uXlXlXiXG.5XmX                                          mXjXgX8XK.Q.qXrX0X).(.~.m.1.M.1.N.V.e.[ 6X                                              ",
"                                              r.y.c.M.N.D._.(./.rXlXlXlXP.G.sX                                          mXBXeXG.H.uXlXlXrXQ.(./.C.,.1.,.b.c.q.k.fX                                              ",
"                                                k.t.m.N.S._.wXL.L.uXpXiXH.G.3X                                        NXmXBX8Xe.!.iXlXlXrXQ.qX`.D.1.N.,.<.w.h.sX                                                ",
"                                                fXk.t.e.c.J.).H.B.L.wXqXJ.B.L.                                        NXNXzXQ.c.).wXpXrXQ.0XwX_.S.4.S.<.w.P.sX                                                  ",
"                                                  bX$X0.q.J.Z.A.B.F.qXqXJ.B.L.CX                VXVXVXVX              NXBXzX/.n.).wX0XH.B./.~.C.1.,.w.y.4XjX                                                    ",
"                                                      d.d.t.I.~.Z.H.8XrXH.B.L.BX      lX`.D.N.Z./.J./.~.R.R._.pXVX    CXCXuXA.n.(.pXQ.F.A.R.].V.@.q.k.k.                                                        ",
"                                                         Xj.G./.qX8XL.iXK.B.Q.xXVX  ^.^.T.4.1.<.#.#.<.>.>.1.N.~.wXpXpXBXxX(.n.v.rXyXL.H.~.~.A.y.f.$X;X                                                          ",
"                                                          ;Xj.5XgXhX3XtX3XG.L.lXxX[.9.-.-.:.*.#.@.e.e.#.+.+.$.*.3.W.'.lXtX/.B.z.lX9X8X0X0XJ.t.i.%XMX                                                            ",
"                                                            7XoX4XzXeX9X9XK.F.wX^.8.5.5.5.6.6.8.S.D.N.,.>.*.:.8.6.5.8.^.(./.K.2XkX9XgXxX9Xf.oX                                                                  ",
"                                                              >X*X=XkX9X9X3XF.^.9.7.5.5.5.-.-.-.;.;.;.;.;.;.6.6.5.5.7.9.^.J.P.9XsXgXkX4Xj.4X                                                                    ",
"                                                                +XOXk.x.x.x.G.~.9.8.7.6.-.=.&.&.$.$.$.&.*.=.:.-.5.5.5.7.E.Z.K.eXeXgX5Xj.oX                                                                      ",
"                                                                   Xp.' ' 0.r.e.>.>.%.%.%.O.~ ! ! W W W ~ O.$.&.=.-.6.6.T.V.z.5Xx.k.p.a.;X                                                                      ",
"                                                                    +XD G ` @.O.+.Q W E E / e 4 3 3 3 3 4 E Q +.O.%.*.2.>.w.0.' ] { ..XX-X                                                                      ",
"                                                                      d.r.V.W.8.:.>._ i 3 9 9 , @ @ @ > > > 4 E W W E W _ @.` Z D 6X                                                                            ",
"                                                                    fX2XF.S.8.;.&.^ E i G | | A 7 , , , 9 Z Z t w e Q %.3.T.n.r.6X                                                                              ",
"                                                nX<XXX}.}..X,X      6XeX`.E.8.:.^ E ( i.j.%X%Xa.b f 7 h I p.I .. .u E O.;.9.T.H.          vXvX                                                                  ",
"                                              XX-XXXT K K J X.J   p.$XgXaXE.8.%.W ] i.OXOX$XOX| z f < f S I { +X+Xu.( ! $.3.E.uX        X.@X-X@X.X                                                              ",
"                                          .X}.R H c a p ; s s < 6 A i.yXaXE.2.Q ( d.d.u.' } F h 1 - + - < 7 G j.OXd.} / +.*.E.pXBX  |.s.x x x H R XX@X                                                          ",
"                                        ,XT x c l a p : d |.T 1 . O r 8X'.T.O.e } ..D t q 9 8 = % & . . + * , Z ' } u.' ) O.D.8XsXY h 1 1 d l l l x B <X                                                        ",
"                                      <X}.J g s c c H }.<X    P d + 5 K.].4.O./ o.{ Z 5 # , 1 - o % & & % % O 5 G ' } i.` / e G d.6 < z P d p a l K P :X                                                        ",
"                                    1XX.S S L U |..X@X,XvX7X      % 2 P.].1.~ ( } G t 5 # , < + . & % % & o o , M ' u.d.Z > @ 6 L N U |.  .X}.T R J S |.                                                        ",
"                                  .XX.N I p.|.|.|.|.}.|.|.s.        v z._.N._ u { F r q # * = * + @ * @ + o o * 0 Z ' d.n o . ; K .XvXZX    ,X-X.XL n Y                                                         ",
"                                <XX.k V d.OXs.K g g g j z g - f z   p.g.).~.@.Z { A v 7 + $ 7 t w w w w y q % * 7 r G d.j % . % z ,XZXMX      -X+XL N L X.                                                      ",
"                              vX|.B b I | B s < s L &X,X  |.j + . 6 p.i.L.).e.w F D A h ; % Z g.y.y.F.t.y.r.= - 1 0 G u.f % . $ s }.&XU - - j j s s z B }.&X                                                    ",
"                              @XP V { { b z B T &X          s.j 1 f k , ] t.t.e v F F b s ; ] z.B.!.`.J.B.z.0 6 h m '  .< ; - + p B g * - S ;X,X.XJ h < s z L OX                                                ",
"                            ,Xs.L F D V                       ..T P j = * 5 u w r A A b g 6 ' F.J.`.aX).J.z.n f j D  .A ; g f + 1 z 1 < L :XbX    ..{ m 9 s b D ;X                                              ",
"                            ;XY S m m {                       XX}.R j g - o @ > , b A N f 6 ' H.).wXpXwX).z.n f V Y Y f s k 7 + 6 j b U ;XnX        $Xl. .| | F d. X                                            ",
"                            a.S n v F +X                      {.T x 6 z g ; o X O < b N f 7 0.0XaXpXpXpXqXx.k j S L B s g 7 @ @ 6 b ..*XbX          *XoXoX*X6XoXm m |.>X                                        ",
"                          &XL V v { oX                        R x d N B g s ; & X X - k j 1 ' 9XlXpXpXlXhX$Xf g B N j g - , 5 , 7 D *XbX            bXd.u.oX6XdX Xn 9 m d.                                      ",
"                        &X..S M u.OX                        }.K 6 <     P K s ; & . . * s 6 0 ] h.L.H.z.0.Z 6 h k 8 1 1 < 8 9 7 7 OX6X                ;X:X>X       X .7 h ..                                    ",
"                      nX+XV v { OX                          T j < ,       }.T K g ; - = 8 0 r t u ` ` u t M m V | p...a.N ....v M OX                                +X..8 b a.                                  ",
"                      >Xa.v M d.                            B s 7 0           }.K j 6 h m C Z Z r 9 q 5 v D D D OX;X;XdX    a.v D                                     ;X..h S  X                                ",
"                +X;X7X|.V m d.                              z h n '                     U D D D A 6 6 N { d.                  2 {                                       dXU 8 L 7X                              ",
"                dX  >X| 0 Y dX                              h k u.4X                      T U P P J J P U                 :X| 2 u.dX                                      >X..b L                               ",
"                    7X{  .*X                                S m '                                                         d.A 2 oX                                          :Xp.9  X                            ",
"                    +X .p.                                   .r F                                                         n 0 5                                               +X{ F %X                          ",
"                    Y {                                     d.9 m %X                                                      0 0 ]                                                 %XA d.%X                        ",
"                  :XD                                       oXr r i.                                                    d.v v oX                                                  %XG o.$X                      ",
"                  } oX                                        y 9 Z                                                     C r 5                                                       >Xd.] l.>X                  ",
"                oXj.                                          G t M dX                                                  r Z }                                                             $X] j.                ",
"              ' d.6X                                          j.Z y >X                                                &Xv p.6X                                                            6XoX$X                ",
"                } fX                                            ] y j.                                                +XM d.7X                                                              MX                  ",
"                                                                  Z o.                                                &XZ ' i.                                                                                  ",
"                                                                  ' Z                                                   l.i.] Z G                                                                               ",
"                                                                  f.w                                                                                                                                           ",
"                                                                  i.>                                                                                                                                           ",
"                                                                  i.e                                                                                                                                           ",
"                                                                  j.l.                                                                                                                                          ",
"                                                                                                                                                                                                                ",
"                                                                                                                                                                                                                ",
"                                                                                                                                                                                                                ",
"                                                                                                                                                                                                                ",
"                                                                                                                                                                                                                "
};
