/* XPM */
static char *_fb471bb05c14f7a89c53a8152bd4f64gJeawQcYsdxSUCQ8[] = {
/* columns rows colors chars-per-pixel */
"104 64 244 2 ",
"   c None",
".  c #1C1716",
"X  c #160F0C",
"o  c #241D1B",
"O  c #271C15",
"+  c #2B221B",
"@  c #372917",
"#  c #2A2423",
"$  c #2A2727",
"%  c #362D27",
"&  c #3D342C",
"*  c #3B3124",
"=  c #3A3635",
"-  c #322E30",
";  c #261F20",
":  c #46351B",
">  c #4D3616",
",  c #4B3B2D",
"<  c #463829",
"1  c #433C35",
"2  c #433D3A",
"3  c #483C36",
"4  c #5C4515",
"5  c #755719",
"6  c #624717",
"7  c #4F412B",
"8  c #58452A",
"9  c #4C443C",
"0  c #494137",
"q  c #51463D",
"w  c #544A3C",
"e  c #594836",
"r  c #5D5139",
"t  c #67512A",
"y  c #63533D",
"u  c #685738",
"i  c #6B542C",
"p  c #7D6635",
"a  c #7B602F",
"s  c #363D48",
"d  c #3D4450",
"f  c #4B4443",
"g  c #484546",
"h  c #534A44",
"j  c #554D48",
"k  c #5E5344",
"l  c #5B534C",
"z  c #53504A",
"x  c #484C53",
"c  c #5C5552",
"v  c #5A5858",
"b  c #4F4F53",
"n  c #635543",
"m  c #665A4C",
"M  c #6A5C4C",
"N  c #665746",
"B  c #725E47",
"V  c #645A53",
"C  c #695E52",
"Z  c #665E59",
"A  c #6E624B",
"S  c #73644C",
"D  c #796748",
"F  c #6B635C",
"G  c #6C6256",
"H  c #736454",
"J  c #73665B",
"K  c #746A5C",
"L  c #7A6A56",
"P  c #7F755A",
"I  c #535864",
"U  c #6B6564",
"Y  c #6A6767",
"T  c #7A6E62",
"R  c #746C66",
"E  c #7E7263",
"W  c #7C736B",
"Q  c #7B7573",
"!  c #777679",
"~  c #6F6F73",
"^  c #5F6165",
"/  c #886419",
"(  c #946E17",
")  c #99710E",
"_  c #A57B17",
"`  c #A0770C",
"'  c #8F702E",
"]  c #A27D24",
"[  c #8A734A",
"{  c #806C51",
"}  c #887759",
"|  c #937D56",
" . c #967B4A",
".. c #857A65",
"X. c #8B7D65",
"o. c #847769",
"O. c #927E64",
"+. c #867C74",
"@. c #AD841C",
"#. c #B78A14",
"$. c #BF9217",
"%. c #A58739",
"&. c #B78E3D",
"*. c #BC9439",
"=. c #B68C27",
"-. c #C6950C",
";. c #C79917",
":. c #D19D0B",
">. c #D7A717",
",. c #D6A40A",
"<. c #E8B80C",
"1. c #E9B819",
"2. c #E2AD0B",
"3. c #CA9C3D",
"4. c #C69A37",
"5. c #C69C29",
"6. c #CEA325",
"7. c #CCA338",
"8. c #D5A93B",
"9. c #D7AB2C",
"0. c #E6B837",
"q. c #E6B927",
"w. c #F6CA0A",
"e. c #F6CA16",
"r. c #FAD112",
"t. c #EFC312",
"y. c #ECC42D",
"u. c #F4C825",
"i. c #F8D235",
"p. c #99845B",
"a. c #938353",
"s. c #A98647",
"d. c #B48C46",
"f. c #BA9449",
"g. c #A98C59",
"h. c #AC935C",
"j. c #B89757",
"k. c #B38C51",
"l. c #8D836B",
"z. c #97866B",
"x. c #8A837C",
"c. c #8A8276",
"v. c #968976",
"b. c #9F9275",
"n. c #A28D6B",
"m. c #A89466",
"M. c #A99678",
"N. c #B39B79",
"B. c #B09671",
"V. c #BAA377",
"C. c #BBA568",
"Z. c #C69B46",
"A. c #C49D51",
"S. c #CDA243",
"D. c #CCA54C",
"F. c #D2A546",
"G. c #D5AA4A",
"H. c #D9AC4C",
"J. c #D7AB43",
"K. c #DCB24A",
"L. c #CDAC5D",
"P. c #C7A558",
"I. c #D3AE54",
"U. c #DDB454",
"Y. c #DBB55A",
"T. c #D8B65A",
"R. c #CFB05A",
"E. c #E5BA48",
"W. c #E3BB53",
"Q. c #E5BA57",
"!. c #CBAD63",
"~. c #C6A867",
"^. c #CEB266",
"/. c #D3B264",
"(. c #DBBB6C",
"). c #D9B967",
"_. c #C7AC76",
"`. c #CBB277",
"'. c #D7BA75",
"]. c #E1BE68",
"[. c #E1BF72",
"{. c #E9C35C",
"}. c #F8D756",
"|. c #F1CB4A",
" X c #DDC277",
".X c #DFC26B",
"XX c #EAC46B",
"oX c #E7C468",
"OX c #F9D96A",
"+X c #E3C373",
"@X c #EDCB74",
"#X c #E2C47B",
"$X c #EBCC7C",
"%X c #E8C778",
"&X c #F1CD78",
"*X c #EDD27B",
"=X c #F3D478",
"-X c #F1CA61",
";X c #FDE178",
":X c #7E7D82",
">X c #898688",
",X c #968E87",
"<X c #9C948B",
"1X c #9B9286",
"2X c #989594",
"3X c #838790",
"4X c #A29583",
"5X c #A89B84",
"6X c #A49C93",
"7X c #B89E82",
"8X c #AEA18B",
"9X c #B6A489",
"0X c #ABA49B",
"qX c #B2A493",
"wX c #B7AB97",
"eX c #BDB297",
"rX c #A9A7A7",
"tX c #B7ADA4",
"yX c #BBB2A8",
"uX c #CDB586",
"iX c #D6BD87",
"pX c #C6B394",
"aX c #C8B9A4",
"sX c #D9C28A",
"dX c #DAC694",
"fX c #EACC84",
"gX c #E7CB87",
"hX c #ECD185",
"jX c #EBD48D",
"kX c #F4DB8D",
"lX c #F4D584",
"zX c #E8CE97",
"xX c #ECD394",
"cX c #E8D39A",
"vX c #F3D997",
"bX c #F8E398",
"nX c #FEE281",
"mX c #D7C7A7",
"MX c #DAC8B5",
"NX c #EAD6A6",
"BX c #F2DDA7",
"VX c #EDDDB0",
"CX c #E6D3AA",
"ZX c #F9E6A7",
/* pixels */
"                                                                                                                                                                                                                ",
"                                                                                                                                                                                                                ",
"                                                                                                                                          %X          cX                                                        ",
"                                                                                                                                gXxXxXfX%X+X].].].[.(.sX'.                                                      ",
"                                          zXzXzXgX[.(.#XgXgXgXjXxXxXcXNX                                                      zXR.XXlX&XoXQ.U.U.U.U.G.S.A.~.                                                    ",
"                                        P.D.G.I.U.Y.U.Y.Y.].oX$XlX$X).#XzX                                                    vXI.I.@X=XXXY.H.G.G.F.S.Z.f.j.V.                                                  ",
"                                      uXf.4.3.S.F.H.G.H.U.Y.XX&X=XXXD.%XxXBX                                                  jXT.Z.Y.@XoXY.G.S.S.3.3.Z.f.k.m.                                                  ",
"                                      _.d.*.Z.3.3.F.S.S.G.Q.XX&XXXI.A.fXvXNXVX                                                hX(.&.I.&XXXoXU.H.H.H.F.Z.f.k.g.                                                  ",
"                                      B.s.&.Z.3.3.H.F.F.H.oXXX@X].A.f.vXvXxXVX                                              NXfX^.d./.lX$X@XoXW.Q.{.W.F.Z.k.g.                                                  ",
"                                      B.s.&.Z.H.W.{.Q.W.Q.@X@X&X].A.k.xXvXxXzX                                              NX#X~.L.+XfX%XlX@XW.E.{.W.K.D.j.z.                                                  ",
"                                      7Xs.f.H.E.W.-XQ.Q.oXlX$X+X+X/.j.iXBXNXdX                                              uX~. XvXvXgX+X$X).S.4.8.F.U.A.h.M.                                                  ",
"                                         .d.D.H.8.J.8.J.).$X%X#XjXvX#X'.sXzXCX                                              V.j.xXZXZXvX$X+X+XU.7.7.Z.A.j.g.                                                    ",
"                                        N.k.f.S.4.7.5.J.+XfX XjXZXZXbX'.~.`.                                                _.j.vXZXZXvX#X%X*X{.K.J.Z.f.C.9X                                                    ",
"                                        mXV.f.*.3.J.8.W.&XkX#XjXZXZXbX%Xj.j.                                              iX_.L.xXbXvXgX(.hX=XQ.J.H.A.h.pX                                                      ",
"                                          CX`.&.*.E.0.E.XXkXfX XgXbXkXhXD./.BX                                            '.^.L.$XkX+X!.!.%X].D.4.f.m.                                                          ",
"                                                h.d.4.7.H.oX@X!.!.gXkX$XI.).vX                                            /.L.L.hXkX(.P.T.Y.].j.p.z.                                                            ",
"                                                  N.g.s.D.-X{.T.L.'.bXhXI.I.XX          ZX=X{.E.0.8.7.7.8.K.W.@XbX        ).P.~.xXgX(.T.oXoXP.n.v.                                                              ",
"                                                    z.| g.R.{.XX(.'.xXvXL.Z.).        |.-XK.8.7.4.3.*.*.*.7.8.E.-XOX      #XL.~.vXiX XhX$X~.B.1X                                                                ",
"                                                        z.g.^.$XfXgXsXZX`.P.[.xX  OX}.y.1.;.#.@.=.*.f.&.=.6.>.<.<.y.}.  ZXgX!.`.cXsXcXBXiXM.qX                                                                  ",
"                                                          8Xn.uXZXZXsXVXdX`.(.%X=Xi.e.e.u.q.6.5.4.8.W.E.0.u.t.w.w.w.e.}.nX(.~.sXdXcXVXmX5XyX                                                                    ",
"                                                            aXN.pXVXNXmXdX`./.=X|.r.w.r.e.e.1.1.1.1.1.1.<.<.<.w.w.w.r.i.OX)._.cXsXBXpX8XyX                                                                      ",
"                                                              qX4X9XCXCXCXiXR.}.u.w.w.t.<.2.2.>.:.-.-.-.-.:.,.2.t.e.e.u.{.!.V.9XV.V.4X6X                                                                        ",
"                                                              rX,X+.M.V.uXV.P.|.u.e.<.2.,.-.#._ ) ( ( ) ) _ #.$.;.;.;.5.*.k.p.} } l.,X                                                                          ",
"                                                              0X2XQ M L } | s.*.6.>.;.-.#.` / 5 6 6 4 4 6 5 ' / / / ( _ @.%.a.{ H 1X                                                                            ",
"                                                                      B S [ %.] ( / / ( / 5 > > : @ @ @ : 8 e 8 5 ] =.>.u.i.U.g.n.                                                                              ",
"                                                                         .j.|.y.>._ 5 t u A S n < < < 3 m W o.L p / ) -.<.u.y.R.uXmX                                                                            ",
"                                                                        ^.{.i.t.-.) a } c.E +.o.k 0 h l W 6XqX5Xb.[ / ` >.u.|.&XcXaX        6X>X>X>XrX                                                          ",
"                                                                        kXOXy.,.` ' } 4XqX+.T J l 1 f l R 1XqX8X5Xv.[ / #.q.}.nXZXeXv.    Q R Y Y ~ 3X!                                                         ",
"                                                  2X2X! ^ v v v Q <X    bXOXq.#.' } v.4X5X} q = = + - 2 h M X.} X.v.v.[ ( ;.|.;XBXM.J h 1 f f = = d I I Y :X2X                                                  ",
"                                                  v v b d x g 2 2 f C eXdXQ.6.( | l.X.} } 7 % # . X o # % 0 w 7 r L o.l.a @.0.OXjXD + X - Y ,Xv $ s s d x v U                                                   ",
"                                                yXW U v d s g Y U 2 1 +.} a / ' z.X.} } y @ + $ # # $ # $ 3 , @ 7 A P l.p _ 9.|.#Xu + = Y         ^ v b g f V Q rX                                              ",
"                                                <XK F Y ~ :X    2Xx.Z R l @ @ B z.l.} D 7 O o ; # # # . o & , @ > u L X.D ( 5.-X Xy h Y                 R R K Z Q 2X                                            ",
"                                                +.V J >XrXrX      yXQ U g . . h l.a.D y < + o + @ * @ + @ & * + < y A o.D ' 7.@X`.S U                   x.,Xv.E V Q 2X                                          ",
"                                                W V F x.6X            c - . o f c.} u e & # < 8 t i t t u r # o , k M o.D ' Y.=XC.v.    l % f c l h j z F +.<X4XK j Y rX                                        ",
"                                              ,XF V h 2 9 l & % V <X,Xb $ . # 2 o.P n 0 = % } j.d./.j.k.h.} % - q M K K u %.].fXn.v.l o O f x.    0XQ j = 2 V W E C V R                                         ",
"                                        6XW c h 3 q G U     U 2 % 9 U g # $ = - T X.L h 9 q m.^.L.*X+X^.C.p.1 9 l G J N i s.P.| < h l 0 9 +.            Q F c l K o.K Z >X                                      ",
"                                        T V h q N } +.        F q & c g # 1 c - l o...m h k m.(..XkXlX.X!.g.w f l G H y i a t * * h U Q Q                 x.x.  M L K J +.                                      ",
"                                      o.H E o.o.z.8X            o.m c f % < l f f R o.G l k m. X*XbXkX*X(.h.w f l G C , : @ o # f z Y >X2X                      o.H N J K <X                                    ",
"                                  W K n v.aXaX8XM.8X              +.C h * @ 3 j g v R K c j m.jXbXbXbXbXhXm.9 f c V q O X . - g c 9 b ~ 3X                      qX..n N C c.<X                                  ",
"                              1XH e k l.yXaX9Xv.o.                  o.w < 7 7 % f j V G c f v.cXZXbXbXZXxXn.0 j l 1 . X . = g j Z G z b ~ rX                      8Xl.n m J 1X                                  ",
"                            c.k e K 1X      yXtX0X                  qXn , w w 1 2 0 w k j 9 M p.C.^.'.C.| n 9 h & O . o - g v Q 2X0Xl 1 v ,X                          v.M G o.x.                                ",
"                          ,XC 9 T <X                                  A n T x.          n n N u u '  .D u y y w , % & =             w 1 f ~                           5XX.M V R                                 ",
"                          W 9 J 6X                                    L N T                 L y 7 7 e r N D B y w 9 h               r e 9 Z                             b.S n G                                 ",
"                        h w C 0X                                      X.e ,                     m 2 2 k L L H                       ..S w c                               l.S N +.yXtX6X1X                      ",
"                      F n J tX                                        v.e M tX                                                      aXM.n j                                 L k H tX                            ",
"                    6Xn K 0X                                          qXn r v.                                                        X.N J                                 wXv.H tX                            ",
"                    K E ,X                                            aXL e m                                                         o.e ..                                  4XE <X                            ",
"                  v.A v.                                              MXv.n e                                                       qX.., z.                                    o.T                             ",
"              8Xv.S 4X                                                  wXL e v.                                                    z.S , M.                                      S X.                          ",
"          aX5X} X.tX                                                        e N                                                     S y u wX                                      8XO.                          ",
"        wX} 5X9X                                                              e                                                     N e } aX                                        M.M.qX                      ",
"                                                                              8                                                   aXB u M.                                          aXM.}                       ",
"                                                                              8                                                   5XD D pX                                            b.X.                      ",
"                                                                              8                                                   l.D O.MX                                              aX                      ",
"                                                                      { D D                                                       D } O.                                                                        ",
"                                                                                                                                  i | 9X                                                                        ",
"                                                                                                                                aXt [ 9X                                                                        ",
"                                                                                                                                aX' [ M.                                                                        ",
"                                                                                                                                  b.M.5X                                                                        ",
"                                                                                                                                                                                                                ",
"                                                                                                                                                                                                                ",
"                                                                                                                                                                                                                ",
"                                                                                                                                                                                                                ",
"                                                                                                                                                                                                                "
};
