/* XPM */
static char *Girl11711113553[] = {
/* columns rows colors chars-per-pixel */
"44 64 185 2 ",
"   c black",
".  c #898D79",
"X  c #777869",
"o  c #C1B109",
"O  c #010101",
"+  c #070403",
"@  c #565551",
"#  c #888C78",
"$  c #CF1F38",
"%  c #040202",
"&  c #0A0704",
"*  c #12120F",
"=  c #292826",
"-  c #595D42",
";  c #5B6631",
":  c #1B1B08",
">  c #291517",
",  c #D32038",
"<  c #878C7A",
"1  c #636359",
"2  c #6E6D61",
"3  c #BDAE0A",
"4  c #858975",
"5  c #7B7D6D",
"6  c #5A5B52",
"7  c #C4B40A",
"8  c #5F5F57",
"9  c #595751",
"0  c #808372",
"q  c #2F2C03",
"w  c #DC834D",
"e  c #A9133C",
"r  c #8A0B41",
"t  c #41433B",
"y  c #31361B",
"u  c #5D5604",
"i  c #1B0E0E",
"p  c #33070E",
"a  c #8F8716",
"s  c #524C05",
"d  c #7A3E4E",
"f  c #6A3443",
"g  c #B71839",
"h  c #D77C49",
"j  c #B7AA0B",
"k  c #CA2C3C",
"l  c #CC1F38",
"z  c #311817",
"x  c #3B1E13",
"c  c #8A8F7A",
"v  c #191917",
"b  c #622D18",
"n  c #696A46",
"m  c #391D1D",
"M  c #6C742A",
"N  c #5D5C54",
"B  c #331A19",
"V  c #110A0A",
"C  c #ACA111",
"Z  c #96955E",
"A  c #B3A71A",
"S  c #885B3C",
"D  c #6B5240",
"F  c #A39A17",
"G  c #AFA331",
"H  c #7D7835",
"J  c #C2B307",
"K  c #BDAF11",
"L  c #931040",
"P  c #8A1525",
"I  c #393930",
"U  c #422717",
"Y  c #440B12",
"T  c #50282E",
"R  c #362C21",
"E  c #737531",
"W  c #9C994F",
"Q  c #232002",
"!  c #6B4A2A",
"~  c #270A15",
"^  c #919269",
"/  c #8C8F74",
"(  c #A49E43",
")  c #D1824D",
"_  c #8C1625",
"`  c #DA8B50",
"'  c #991729",
"]  c #A7A031",
"[  c #B2A829",
"{  c #EB9858",
"}  c #C11B38",
"|  c #A1143D",
" . c #E48A55",
".. c #A92441",
"X. c #CA7648",
"o. c #BB674A",
"O. c #4B4A1A",
"+. c #847C1B",
"@. c #787645",
"#. c #8A8C6D",
"$. c #DF9053",
"%. c #9C941C",
"&. c #70713C",
"*. c #706807",
"=. c #5C2E3B",
"-. c #422126",
";. c #28280F",
":. c #CED3B9",
">. c #98923A",
",. c #66685E",
"<. c #B77E48",
"1. c #9C9007",
"2. c #D3996D",
"3. c #583D22",
"4. c #1A0407",
"5. c #595C1C",
"6. c #B07445",
"7. c #61423A",
"8. c #817E31",
"9. c #5D0C1B",
"0. c #E1624A",
"q. c #D85A45",
"w. c #9A6E66",
"e. c #C74F47",
"r. c #A06541",
"t. c #AB4046",
"y. c #B64C47",
"u. c #804248",
"i. c #AE7158",
"p. c #C18257",
"a. c #F6A961",
"s. c #7C5140",
"d. c #A96E4A",
"f. c #A87B20",
"g. c #A53043",
"h. c #3C3705",
"j. c #969664",
"k. c #B01B30",
"l. c #79805A",
"z. c #3B0910",
"x. c #7A3B23",
"c. c #5E2F32",
"v. c #30180F",
"b. c #4D4F44",
"n. c #835F45",
"m. c #392816",
"M. c #505347",
"N. c #510D16",
"B. c #636049",
"V. c #724647",
"C. c #909381",
"Z. c #5A603C",
"A. c #4E4C48",
"S. c #5D4D1D",
"D. c #60313B",
"F. c #626E39",
"G. c #C41D39",
"H. c #DEC39E",
"J. c #B7434D",
"K. c #673D25",
"L. c #817B71",
"P. c #620F1B",
"I. c #454322",
"U. c #A6192D",
"Y. c #937D6F",
"T. c #D87C57",
"R. c #D2453F",
"E. c #B4283B",
"W. c #BE9A32",
"Q. c #861840",
"!. c #DF9B5B",
"~. c #77433E",
"^. c #956227",
"/. c #AD5853",
"(. c #A78962",
"). c #8D872C",
"_. c #CC982B",
"`. c #FFB364",
"'. c #A94C4C",
"]. c #B17330",
"[. c #FFB465",
"{. c #F4A35D",
"}. c #A78A65",
"|. c #008D69",
" X c #897809",
/* pixels */
"                                                                                        ",
"                                                                                        ",
"                                                                                        ",
"                                                                                        ",
"                                                                                        ",
"                                                                                        ",
"                                                                                        ",
"                                    z._ P P _ N.O % % O                                 ",
"                                  p k., , , , g ' ' ' P.                                ",
"                                  Y $ $ $ $ G.} , , , U.b ! 3.O                         ",
"                                  Y $ $ $ $ g L e e g $ 0.a.` 3.O                       ",
"                                  Y $ $ $ k e.y.y.t.L g q.`  .<.%                       ",
"                                  p | e k q.w 6.s.S t.L e. .w r.%                       ",
"                                O ~ r r ..X.h X.r.D o.r ..0.h X.K.%                     ",
"                                  % 9.g Q.7.S h w !.T.r e k R.h 2.8                     ",
"                                  4._ l | f d.{ { `. .r e $ k i.H.5                     ",
"                                4._ $ $ } g.w {.[.a./.r e , E.L.:.X *                   ",
"                                p l $ l | L g.'.i.d.f.^.~.u.u.2 C.1 =                   ",
"                                p l $ l ..s.f.].o.o._.j 8.@ @ N 8 9 =                   ",
"                O & & O         p } l k w.X ).G }.) p.( j H 9 @ @ 9 =                   ",
"                & <.6.&         % 9.J.Y.0 8 H K [ (.p.W J ( ,.= 9 6 =                   ",
"            : S S $.$.!           B w.c 0 9 H o K G W.G o [ 8.* = = *                   ",
"            i ! ) w w ) n.5 t b.M.6 2 2 N I.F o o o o o o 7 1.+     %                   ",
"                U ` { h 2.:.2 2 . 5 @ A.v q 3 o o o A ] 3 G @.+                         ",
"                O m.U x R I v = N N I *   : a 3 3 C E &.5.;.v O                         ",
"                    O           * * &     : ; M M M ; ; y                               ",
"                                          : ; ; ; - - - y                               ",
"                                        O * - - - @ 8 X t                               ",
"                                        * 6 X X X X 5 c ,.:                             ",
"                                    O * 1 . . . . . . . l.y                             ",
"                                    h.a #.# # # # # # < W s                             ",
"                                  O I ^ # # # # # # # < ( u                             ",
"                                  Q E < # # # # # # # < j.O.                            ",
"                                : +.Z # # # # # # # # # c t                             ",
"                              : +.Z < # # # # # # # # # c t                             ",
"                        O % : a [ # # # # # # # # # # # . t                             ",
"                      % ;.5.a Z ^ # 4 4 4 # # # # # # . 5 R                             ",
"                    % Q C A Z # # . X N ,.4 # # # # # # W s                             ",
"                      q 3 K ^ < 0 2 1 6 X # # # # # . 0 >.u                             ",
"                      q j o ] 2 1 1 X 5 # # # # # 0 ,.@.C u                             ",
"                      & u j 3 F F >./ / # # # 4 0 1 @ H 7 u                             ",
"                        & q 1.o J K A ] #.4 X 1 8 @ n A %.y                             ",
"                            q j 7 7 F M F.n N @ @ @ &.7 *.%                             ",
"                            O s s s S.D D ; - 9 @ B.%.7 *.                              ",
"                                  V =.d f y ; - @ n 3 C O.                              ",
"                                O > d f ~ + R D Z.E a q V                               ",
"                                & -.D.m %   > d V.7.Q                                   ",
"                              + > m m > %   > d f i                                     ",
"                              & z B B z %   > d f &                                     ",
"                            % > =.T > V O   i T -.+                                     ",
"                            & c.x.b i       V B z i O                                   ",
"                            & m U v.+     & x b b T %                                   ",
"                            O + + %       & z x x z %                                   ",
"                                          O + + + %                                     ",
"                                                                                        ",
"                                                                                        ",
"                                                                                        ",
"                                                                                        ",
"                                                                                        ",
"                                                                                        ",
"                                                                                        ",
"                                                                                        ",
"                                                                                        ",
"                                                                                        "
};
