/* XPM */
static char *baed81bedfe5408ebea75ac9dc6d792d96iwcmlqWNI32sz9[] = {
/* columns rows colors chars-per-pixel */
"31 64 222 2 ",
"   c #020102",
".  c #0A0303",
"X  c #030904",
"o  c #0B0A06",
"O  c #040409",
"+  c #08040A",
"@  c #060B0A",
"#  c #0A090A",
"$  c #140C0B",
"%  c #140805",
"&  c #0F100B",
"*  c #14120E",
"=  c #0B0C12",
"-  c #0E0314",
";  c #130C15",
":  c #0E1215",
">  c #111115",
",  c #1B1313",
"<  c #141519",
"1  c #1A191B",
"2  c #240202",
"3  c #2C0400",
"4  c #2C0B02",
"5  c #290A0C",
"6  c #330C04",
"7  c #350C07",
"8  c #24150F",
"9  c #2A1709",
"0  c #2F1307",
"q  c #371304",
"w  c #33130C",
"e  c #3B1509",
"r  c #241A10",
"t  c #2E1A13",
"y  c #231C1B",
"u  c #291818",
"i  c #331C14",
"p  c #341D1B",
"a  c #311112",
"s  c #1E211A",
"d  c #2C231C",
"f  c #27221D",
"g  c #38261D",
"h  c #1D2023",
"j  c #262A2E",
"k  c #2B2B2B",
"l  c #2A2525",
"z  c #332C2A",
"x  c #352A26",
"c  c #35312C",
"v  c #3C322D",
"b  c #2E2E31",
"n  c #3C3C3D",
"m  c #373535",
"M  c #413433",
"N  c #4B3E3D",
"B  c #463B37",
"V  c #523834",
"C  c #603D37",
"Z  c #42413D",
"A  c #59443B",
"S  c #624439",
"D  c #383D45",
"F  c #523F41",
"G  c #3B4248",
"H  c #444244",
"J  c #474948",
"K  c #584B49",
"L  c #5A584E",
"P  c #4E4E50",
"I  c #4E5659",
"U  c #535355",
"Y  c #54545A",
"T  c #5C575A",
"R  c #595C5D",
"E  c #574A51",
"W  c #67584E",
"Q  c #665955",
"!  c #6F605D",
"~  c #72615A",
"^  c #5C5C61",
"/  c #635D65",
"(  c #5C6164",
")  c #5C6069",
"_  c #566062",
"`  c #636162",
"'  c #686566",
"]  c #65656C",
"[  c #706F6B",
"{  c #646B73",
"}  c #6B6C74",
"|  c #6A6E7B",
" . c #646A77",
".. c #6C7175",
"X. c #6D737B",
"o. c #68757B",
"O. c #72737D",
"+. c #75767A",
"@. c #9B6E2A",
"#. c #9C7448",
"$. c #876A5F",
"%. c #8D6A42",
"&. c #87776B",
"*. c #877A76",
"=. c #967E74",
"-. c #997D6F",
";. c #A37F69",
":. c #D9921E",
">. c #FFB21A",
",. c #F6A711",
"<. c #D99F31",
"1. c #DC9C2E",
"2. c #E19724",
"3. c #F9A726",
"4. c #BE8542",
"5. c #978578",
"6. c #928673",
"7. c #A6897A",
"8. c #B2927C",
"9. c #AF866A",
"0. c #C0A47F",
"q. c #D4954E",
"w. c #737C83",
"e. c #7A7E8A",
"r. c #757883",
"t. c #807883",
"y. c #6D808A",
"u. c #73848B",
"i. c #7A848B",
"p. c #77888F",
"a. c #788488",
"s. c #738592",
"d. c #7A8692",
"f. c #758A95",
"g. c #7A8B94",
"h. c #798A99",
"j. c #7D9097",
"k. c #828383",
"l. c #81848C",
"z. c #898989",
"x. c #948885",
"c. c #828C94",
"v. c #828C99",
"b. c #868991",
"n. c #839299",
"m. c #9F9D9E",
"M. c #AD8F85",
"N. c #A79387",
"B. c #B39389",
"V. c #B3998C",
"C. c #B69987",
"Z. c #A89C95",
"A. c #B09C93",
"S. c #BDA99C",
"D. c #B9A79B",
"F. c #ACA19B",
"G. c #9E9EA0",
"H. c #8A98A1",
"J. c gray68",
"K. c #B6A8A1",
"L. c #BAAEA9",
"P. c #B4AAA9",
"I. c #B9B4B0",
"U. c #C09D89",
"Y. c #C3AA9D",
"T. c #C5A597",
"R. c #C8AA95",
"E. c #C0AEA0",
"W. c #C5B2A2",
"Q. c #CEB3A4",
"!. c #C6B2AA",
"~. c #CEBAAA",
"^. c #D4B7A9",
"/. c #D5B9A6",
"(. c #D5BDB2",
"). c #C6BBB5",
"_. c #E1BDAD",
"`. c #C8C2BC",
"'. c #DAC8B9",
"]. c #D9C3AC",
"[. c #E4C1AE",
"{. c #E4C6B3",
"}. c #ECCCBC",
"|. c #E1C8BC",
" X c #EDD2BD",
".X c #F2D5B3",
"XX c #BBBCC0",
"oX c #CDCDCB",
"OX c #C9C6C4",
"+X c #D2CCCE",
"@X c #CECED0",
"#X c #D5D4D4",
"$X c #D7DAD9",
"%X c #DBDDDB",
"&X c #D4D9D5",
"*X c #EBD4C5",
"=X c #E6D4C5",
"-X c #F2D5C4",
";X c #FDDCC4",
":X c #FCDDCB",
">X c #F4D7CA",
",X c #E9DDD7",
"<X c #F8DDD2",
"1X c #FDE3CB",
"2X c #FDE5C8",
"3X c #E8E2D7",
"4X c #FDE3D1",
"5X c #FEE9D5",
"6X c #FEE6DC",
"7X c #FFEBDB",
"8X c #F5E2D3",
"9X c #DDDEE2",
"0X c #ECECED",
"qX c #E4E5E3",
"wX c #FFF2E2",
"eX c #F2F4EF",
"rX c #F3F4F4",
"tX c #F5F9F5",
"yX c #FBFAF6",
"uX c #FDFDFD",
"iX c #F8F7F6",
"pX c #F1E8E1",
/* pixels */
"                . . O X     O     O           O               ",
"                    O     . # # O & & . & X                   ",
"                X   # ; , , $ r t t t i i . +                 ",
"                  X y p u p i w w 6 e e e 8 . @               ",
"                @ $ p e 4 6 7 7 w 4 4 q 0 r o                 ",
"                  p w 3 q 6 2 3 4 6 3 3 4 g y                 ",
"                  8 w q 6 4 S M.T.T.B.C 5 x . O               ",
"                X . a w 4 &.7X8X4X4XwX,XB # @                 ",
"                  1 t 5 C 2XV.7. X-X8.].Q   X                 ",
"                  , g 2 $.2XT.Q.:X}.U./.K   .                 ",
"                  $ 9 2 -.2X$.B.:X:X;.C.!     .               ",
"                  y N.A T.2XB.Y.1X:XC.W.Q   .                 ",
"                  m 8X<X:X.X5X<X-X<X5X8XM   o                 ",
"                O # &.(.}.2XQ.5.~.M./.=Xl   X                 ",
"                +   . t (.2X*XN.Y.B.-X5.  @                   ",
"                  #   W 6X/.Q.7X|.>X^.9 .                     ",
"          O   O   # K *X;X{.A T K.6.f                         ",
"      O   O O   U oXI.W.2X{.W # . %     O                 O   ",
"              R rXuXyXN.'.S.pXk..   # # O             O       ",
"            k %XuX0XuXiXx.F.yX%Xk   @                   .   O ",
"  O   O     k.uXuXuXuXuXOX,XuXuXY   #   O       O   O     O O ",
"          # oXuXuXuXuXuXuXuXrXuXk.  O       O O   > H m.n   . ",
"O   #   O l 0XuX9XqXuXuXrXuX$X$Xm.          @   1 J.0XuXoXD   ",
"@     #   m uXuXXX$XuXuXuXuX#X+XI.#   .   . @   R uXuXrXuXOX< ",
"  #       U iXuX`.$XuXuXtXuX$XD.x.o   = O @   1 I 6.9.!.L.L $ ",
"@ O   O   H I.K.Z.&XuXuXtXuX#XA.Z.*       , x.S.~ @.3.:.4.A - ",
"      @   L =X|.D.%XuXuXuXuX$X!.|.M 8 c r *./.8.x.#.3.,.<.W = ",
"  O   O   B 4X;XY.3XuXuXuXuXqX!.}.*X].~.'.wXC.8.&.#.,.>.1.A   ",
"      O   B 4X;XS.#XuXuXuXyXeXL. X4X4X7X6X6XD.5.&.%.2.2.q.K @ ",
"O         B -X;XW.oXuXuXuXyXuXL.W.*X(.Y.=.W x z Y x.0.C.S.J X ",
"    O O   v *X1XY.oXuXiXyXuXuXP.x x d $ % .     X s b D k . . ",
"  @ O     d *X:XQ.OXuXuXyXyXtXOX>           = = O     X   # + ",
"    X     y {.1X~.OXuXyXtXuXuXOXl   + O @     O . . .       X ",
"      . O $ ^.5X^.`.uXyXuXtXiX#Xk   +     # .   + O O . O . X ",
"  O     O O T.5XQ.`.uXiXiXuXuXuXT . @     O     . . .         ",
"  O X   O O B.7X_.).uXuXrX0X#XoXP         X                   ",
"    X   O O 7.5X[.&.l.b.z.i.....b                             ",
".   X   O   -.5X-X&.o.a.} r.u.b.H #                           ",
".         . 7.5X}.*.u.j.} | h.c.Y       .                     ",
"  @     O # B.5X-X*.o.g.| | f.g.^ O # O                       ",
"          d S.^.T.*.a.f.X.' g.i...=                           ",
"O       . f 5.V.=.+.i.f.| ` f.g.{ =                           ",
"O O O     o v K +.e.d.s.O.' f.h.X.:                           ",
"    .         l a.h.s.s.r.' h.s.O.<   O O                     ",
"        O O   c p.h.u.f.X.` g.d.O.1                           ",
"@ .       X   m d.s.a.g.X.` g.i.w.h                           ",
"      . X X O m d.d.a.g.X.} g.a.i.j                           ",
"      .     O k a.h.i.s.| } f.a.i.j                           ",
"              m d.a.u.c.{ | d.u.l.h           .               ",
"              n v.u.u.c.{ X.d.f.O.<                           ",
"              J v.u.u.v.] O.d.f.O.1     . .                   ",
"              Y v.u.u.c.) r.d.g.r.1                           ",
"            @ ( h.u.u.v.) e.i.h.} <                           ",
"            : } h.u.u.d.) i.i.h.} >     .                     ",
"  O   .     h +.d.u.p.a.) l.i.h.} >                           ",
"  O   .     j a.d.u.p.w.) l.i.g.] =   .                       ",
".     O     D d.d.d.u.e.{ i.u.n.^ #     O                     ",
"  O @       D v.d.y.j.{ | g.y.u.U #         .                 ",
"    O       G d.v.y.g.| { g.u.H.U @   X                       ",
"X           _ n.e.d.i.i./ i.c.w.[ k o     O O                 ",
"      .     _ n.t...( / E U ` H N N v $       O               ",
"            j R E H B N F z c B N N z .   O                   ",
"              > y m Z B M y . $ $ $           .               ",
"  O   O     .   . . . . . .           O                       "
};
