/* XPM */
static char *_d40e50af0564db3d97362a0802843ecdDCWrzrQJirzP9i1[] = {
/* columns rows colors chars-per-pixel */
"35 64 80 1 ",
"  c black",
". c #2C2727",
"X c #050506",
"o c #0E0E0F",
"O c #2E2929",
"+ c #191A17",
"@ c #F2CAAA",
"# c #302A2A",
"$ c #181916",
"% c #2C2625",
"& c #010102",
"* c #F1C8A9",
"= c #121214",
"- c #151516",
"; c #0A0A0B",
": c #1D1D1E",
"> c #EEC7A7",
", c #F1C9A7",
"< c #2A282B",
"1 c #302C2D",
"2 c #202022",
"3 c #1C1B1C",
"4 c #211E1C",
"5 c #272427",
"6 c #F4CBAB",
"7 c #19181B",
"8 c #272323",
"9 c #857569",
"0 c #EAC4A4",
"q c #C1A18B",
"w c #E3020E",
"e c #363231",
"r c #9A8473",
"t c #E7C1A1",
"y c #4F4B4A",
"u c #B79A84",
"i c #CDAB91",
"p c #545150",
"a c #E2BE9F",
"s c #3E3938",
"d c #C6AC98",
"f c #E2C3A9",
"g c #DDB89B",
"h c #636162",
"j c #46403E",
"k c #726359",
"l c #5E5652",
"z c #FAFBFB",
"x c #4C443F",
"c c #DFE0DF",
"v c #F5F0ED",
"b c #D4B399",
"n c #A28B79",
"m c #DEB793",
"M c #74706F",
"N c #665B55",
"B c #E8C9BE",
"V c #AC9381",
"C c #F1E1D4",
"Z c #A3A09E",
"A c #D1CCCB",
"S c #8F7D70",
"D c #D9C5B5",
"F c #BAA594",
"G c #9B0B0F",
"H c #BE383B",
"J c #D7030D",
"K c #E22028",
"L c #EE9A9C",
"P c #EB7577",
"I c #C2776E",
"U c #220D0E",
"Y c #4F191A",
"T c #7B070C",
"R c #61090C",
"E c #621112",
"W c #818382",
"Q c #F8D2D2",
"! c #E94A52",
"~ c #2C050F",
/* pixels */
"                                   ",
"                ;:%%8o&            ",
"              XsSFddFnN3           ",
"             XldfffffffVe&         ",
"             jb,>>>>>>,,q8         ",
"            ;r@*********>9X        ",
"            .b66@@***@@@6i8        ",
"            xunqba0>>tgiunx        ",
"          XOxjsppNkkkklpyxy;       ",
"         &xqiSphhhynkyhllj9S1      ",
"         X9maglyhy9@qyhpxnaq9X     ",
"          lig0qnr9i@tS9rVai99X     ",
"          osV,@,>>***>>*,,bN.&     ",
"           Xr,**>t>,>0>**@q3       ",
"           ;r,***tgggt***6uo       ",
"           ;n,****0at>***6uo       ",
"           +u,****>>>****6uo       ",
"           %q>****gig,***6uo       ",
"           jit****tt0>***@uo       ",
"           ymm0>*********6uo       ",
"         Xolmmmt>********@Vo       ",
"       &o55eFfaaa0000000>0k2;      ",
"      &-<8++MvvvvBIqCCCCCZ--2X     ",
"     &7O83+$5ZzzcIGHAzzzAe X:3&    ",
"     o1O.58+$pAccPJKBcvcp& &o:o    ",
"    X2#OOO2++4Zzv!wKBvcM;&;o-+7&   ",
"    71O#O%+$+$jcQKwwLzZ7 X=$$+-X   ",
"   X5#OOO.2+$$+WLwwwPA1  &X=++3o   ",
"   -#OO#OOO%4+$1HwwwHj&&&;=$+++=   ",
"  &2#O######O8:+EJwJRX&;=$$++++o   ",
"  ;<OOOO######.24GwT;;=$+++++++=&  ",
"  =#OOOOO####OOO8YGU=$$+++++++$7&  ",
"  3##OO11#####OOOO4$++++++:3++$$&  ",
"  71OO#<5######O1e4+$+++++22+++-&  ",
" &7#OO#:7#O####Oes4+$+++$333+++-&  ",
" &:####7oOO####OOO4+$+++$:-73++-&  ",
" &3#O##3X.#####OOO4+$++++:o=3++-&  ",
"  71O#17X<O####Oes4+$+++$2X;3++-&  ",
"  :1OO#2;<#####O1e4+$+++$2Xo:++-&  ",
"  =1OO#<;5#######O4+$+++$:Xo:$+-&  ",
"  ;<O.O5-OO####O#14+$+++$:o;+-$3;  ",
"  &2syMh2OO####Oes4+$++++:--ppyj-  ",
"   ;hDBd9xO######14+$+++$+1NDBDM=  ",
"   XM>,*>r1O#####O4+$+++-.V0>,>9=  ",
"   .d@>>>9O%OOOOO.4+++33+ed@>*@q:  ",
"  &ea6@@bNO%%%%%%%8888885<n6@@6d:  ",
"   4rqr9s;7<%%%%%%%%%%%.<-kqibi9;  ",
"   &;-;&  &:O%%%%%%%%%.5;&;$1O4o   ",
"           o.%%%O<O%%%.2&          ",
"           oO%%%17<%%%.7           ",
"           o<%%%<o:.%%O-           ",
"           X5.%%5X3.%%.o           ",
"           &2.%.5X:O%%<o           ",
"            7.%%5X2O%.5X           ",
"            :O%%<X2O%.5X           ",
"            o.%.<;2O%.3&           ",
"            =1%.<X2O%O3            ",
"            o1%.2X-.%.-            ",
"            X2..3X=..8;            ",
"            &7%%:&;8%2;            ",
"           &-:::; X73:=&           ",
"           &;oo=X &o==o&           ",
"                                   ",
"                                   "
};
